<svg width="40" height="40" viewBox="0 0 40 40" fill="none" xmlns="http://www.w3.org/2000/svg">
<path d="M18.6137 36.1592L15.056 32.6016H9.28891C8.19041 32.6016 7.25419 32.2146 6.48025 31.4406C5.70631 30.6667 5.31934 29.7305 5.31934 28.632V7.21127C5.31934 6.11277 5.70631 5.17655 6.48025 4.40261C7.25419 3.62867 8.19041 3.2417 9.28891 3.2417H30.7096C31.8081 3.2417 32.7443 3.62867 33.5183 4.40261C34.2922 5.17655 34.6792 6.11277 34.6792 7.21127V28.632C34.6792 29.7305 34.2922 30.6667 33.5183 31.4406C32.7443 32.2146 31.8081 32.6016 30.7096 32.6016H24.9425L21.3849 36.1592C20.9854 36.5586 20.5235 36.7584 19.9993 36.7584C19.475 36.7584 19.0131 36.5586 18.6137 36.1592Z" fill="#26D07C"/>
<path d="M18.6137 36.1592L19.3208 35.4521V35.4521L18.6137 36.1592ZM15.056 32.6016L15.7631 31.8944L15.4702 31.6016H15.056V32.6016ZM24.9425 32.6016V31.6016H24.5283L24.2354 31.8944L24.9425 32.6016ZM14.8597 11.574C14.5782 12.0492 14.7352 12.6626 15.2103 12.9441C15.6855 13.2256 16.2989 13.0687 16.5804 12.5935L15.7201 12.0838L14.8597 11.574ZM23.6062 11.3979L24.4062 10.7979V10.7979L23.6062 11.3979ZM20.6147 18.8791L19.8825 18.198V18.198L20.6147 18.8791ZM20.2011 19.6927L21.1828 19.8836V19.8836L20.2011 19.6927ZM18.91 21.0936C18.8046 21.6357 19.1586 22.1606 19.7008 22.2661C20.2429 22.3715 20.7678 22.0174 20.8733 21.4753L19.8916 21.2844L18.91 21.0936ZM20.628 26.4483C20.628 25.896 20.1803 25.4483 19.628 25.4483C19.0757 25.4483 18.628 25.896 18.628 26.4483H19.628H20.628ZM18.628 26.5642C18.628 27.1165 19.0757 27.5642 19.628 27.5642C20.1803 27.5642 20.628 27.1165 20.628 26.5642H19.628H18.628ZM18.6137 36.1592L19.3208 35.4521L15.7631 31.8944L15.056 32.6016L14.3489 33.3087L17.9065 36.8663L18.6137 36.1592ZM15.056 32.6016V31.6016H9.28891V32.6016V33.6016H15.056V32.6016ZM9.28891 32.6016V31.6016C8.45454 31.6016 7.77299 31.3192 7.18736 30.7335L6.48025 31.4406L5.77314 32.1477C6.73539 33.11 7.92628 33.6016 9.28891 33.6016V32.6016ZM6.48025 31.4406L7.18736 30.7335C6.60172 30.1479 6.31934 29.4663 6.31934 28.632H5.31934H4.31934C4.31934 29.9946 4.8109 31.1855 5.77314 32.1477L6.48025 31.4406ZM5.31934 28.632H6.31934V7.21127H5.31934H4.31934V28.632H5.31934ZM5.31934 7.21127H6.31934C6.31934 6.3769 6.60172 5.69536 7.18736 5.10972L6.48025 4.40261L5.77314 3.69551C4.8109 4.65775 4.31934 5.84864 4.31934 7.21127H5.31934ZM6.48025 4.40261L7.18736 5.10972C7.77299 4.52408 8.45454 4.2417 9.28891 4.2417V3.2417V2.2417C7.92628 2.2417 6.73539 2.73326 5.77314 3.69551L6.48025 4.40261ZM9.28891 3.2417V4.2417H30.7096V3.2417V2.2417H9.28891V3.2417ZM30.7096 3.2417V4.2417C31.544 4.2417 32.2255 4.52408 32.8112 5.10972L33.5183 4.40261L34.2254 3.69551C33.2631 2.73326 32.0722 2.2417 30.7096 2.2417V3.2417ZM33.5183 4.40261L32.8112 5.10972C33.3968 5.69536 33.6792 6.3769 33.6792 7.21127H34.6792H35.6792C35.6792 5.84864 35.1876 4.65775 34.2254 3.69551L33.5183 4.40261ZM34.6792 7.21127H33.6792V28.632H34.6792H35.6792V7.21127H34.6792ZM34.6792 28.632H33.6792C33.6792 29.4664 33.3968 30.1479 32.8112 30.7335L33.5183 31.4406L34.2254 32.1477C35.1876 31.1855 35.6792 29.9946 35.6792 28.632H34.6792ZM33.5183 31.4406L32.8112 30.7335C32.2255 31.3192 31.544 31.6016 30.7096 31.6016V32.6016V33.6016C32.0722 33.6016 33.2631 33.11 34.2254 32.1477L33.5183 31.4406ZM30.7096 32.6016V31.6016H24.9425V32.6016V33.6016H30.7096V32.6016ZM24.9425 32.6016L24.2354 31.8944L20.6778 35.4521L21.3849 36.1592L22.092 36.8663L25.6496 33.3087L24.9425 32.6016ZM21.3849 36.1592L20.6778 35.4521C20.4498 35.6801 20.2364 35.7584 19.9993 35.7584V36.7584V37.7584C20.8106 37.7584 21.521 37.4372 22.092 36.8663L21.3849 36.1592ZM19.9993 36.7584V35.7584C19.7621 35.7584 19.5487 35.6801 19.3208 35.4521L18.6137 36.1592L17.9065 36.8663C18.4775 37.4372 19.1879 37.7584 19.9993 37.7584V36.7584ZM15.7201 12.0838L16.5804 12.5935C18.0603 10.0957 21.365 10.0764 22.8063 11.998L23.6062 11.3979L24.4062 10.7979C22.0757 7.69084 17.0368 7.89953 14.8597 11.574L15.7201 12.0838ZM23.6062 11.3979L22.8063 11.998C23.1525 12.4596 23.2706 12.8522 23.278 13.2053C23.2857 13.5736 23.1746 13.9946 22.9045 14.504C22.3393 15.5698 21.2539 16.7236 19.8825 18.198L20.6147 18.8791L21.3469 19.5602C22.6358 18.1745 23.9527 16.7964 24.6714 15.4409C25.0433 14.7396 25.2946 13.9777 25.2776 13.1635C25.2602 12.3342 24.9665 11.5449 24.4062 10.7979L23.6062 11.3979ZM20.2011 19.6927L19.2195 19.5019L18.91 21.0936L19.8916 21.2844L20.8733 21.4753L21.1828 19.8836L20.2011 19.6927ZM19.628 26.4483H18.628V26.5642H19.628H20.628V26.4483H19.628ZM20.6147 18.8791L19.8825 18.198C19.5434 18.5625 19.3142 19.0148 19.2195 19.5019L20.2011 19.6927L21.1828 19.8836C21.2064 19.7619 21.2636 19.6497 21.3469 19.5602L20.6147 18.8791Z" fill="#005844"/>
</svg>
