<svg width="44" height="44" viewBox="0 0 44 44" fill="none" xmlns="http://www.w3.org/2000/svg">
<path fill-rule="evenodd" clip-rule="evenodd" d="M39.8956 15.9726C39.8646 15.7516 39.8337 15.5937 39.7562 15.3253L39.5859 14.8516C39.3691 14.3148 39.0748 13.8411 38.7031 13.4148C38.0992 12.7201 37.3093 12.1359 36.3027 11.5991C35.0638 10.9518 33.7164 10.4781 31.8115 10.0045C30.5571 9.70447 29.7053 9.5308 28.8381 9.42027L28.2651 9.34133C27.6766 9.26239 27.0571 9.19923 26.4222 9.15186L25.7562 9.1045L24.6102 9.04134C23.8514 9.00977 23.0615 9.00977 22.2717 9.00977H21.7452C20.9553 9.00977 20.181 9.00977 19.4067 9.05713L18.2606 9.12029L17.5947 9.16765C16.9443 9.21502 16.3403 9.27818 15.7518 9.35712L15.1788 9.43606C14.327 9.56237 13.4598 9.73605 12.2053 10.0202C10.3005 10.4939 8.95311 10.9676 7.71417 11.6149C6.70753 12.1517 5.91771 12.7359 5.31372 13.4306C4.94204 13.8569 4.64779 14.3306 4.43098 14.8674L4.26062 15.3411L4.2564 15.3557C4.1815 15.6153 4.13645 15.7714 4.12124 15.9884C4.09027 16.2884 4.12124 16.5884 4.19868 16.8884L4.32257 17.2042C4.9885 18.6251 8.22523 20.5356 9.5416 21.1829H9.54862C17.0221 24.7941 26.9939 24.8256 34.4492 21.1829H34.4598C35.7607 20.5356 38.9974 18.6251 39.6633 17.2042L39.7872 16.8884C39.8801 16.5884 39.8956 16.2884 39.8646 15.9884L39.8956 15.9726ZM22.0008 19.5178C23.5884 19.5178 24.8754 18.2308 24.8754 16.6432C24.8754 15.0556 23.5884 13.7686 22.0008 13.7686C20.4132 13.7686 19.1262 15.0556 19.1262 16.6432C19.1262 18.2308 20.4132 19.5178 22.0008 19.5178Z" fill="#4F86D9"/>
<path d="M9.57258 25.9985L9.41771 26.2669C8.90665 27.2142 8.10134 28.8721 8.34912 29.7562C8.59691 30.6404 9.10798 31.4456 9.80488 32.0456C10.192 32.393 10.5792 32.6298 11.1987 32.9456L11.6788 33.1824C12.9177 33.7508 14.2805 34.1929 15.7828 34.5087C17.2385 34.8087 18.7717 34.9823 20.4288 35.0455H21.2651L21.9929 35.0613H22.7208L23.5571 35.0455C25.2142 34.9823 26.7474 34.8087 28.2031 34.5087C29.7053 34.1929 31.0682 33.7666 32.3071 33.1824L32.7872 32.9456C33.4067 32.6298 33.7938 32.393 34.181 32.0456C34.8779 31.4456 35.389 30.6404 35.6368 29.7562C35.8846 28.8721 35.0947 27.2142 34.5682 26.2669L34.4133 25.9985C26.9579 29.6411 17.0461 29.6097 9.57258 25.9985Z" fill="#4F86D9"/>
<path d="M9.57258 25.9985L9.41771 26.2669C8.90665 27.2142 8.10134 28.8721 8.34913 29.7562C8.59691 30.6404 9.10797 31.4456 9.80488 32.0456C10.192 32.393 10.5792 32.6298 11.1987 32.9456L11.6788 33.1824C12.9177 33.7508 14.2805 34.1929 15.7828 34.5087C17.2385 34.8087 18.7717 34.9823 20.4288 35.0455H21.2651L21.9929 35.0613H22.7208L23.5571 35.0455C25.2142 34.9823 26.7474 34.8087 28.2031 34.5087C29.7053 34.1929 31.0682 33.7666 32.3071 33.1824L32.7872 32.9456C33.4067 32.6298 33.7938 32.393 34.181 32.0456C34.8779 31.4456 35.389 30.6404 35.6368 29.7562C35.8846 28.8721 35.0947 27.2142 34.5682 26.2669L34.4133 25.9985M9.57258 25.9985L9.54862 21.1829M9.57258 25.9985C17.0461 29.6097 26.9579 29.6411 34.4133 25.9985M34.4133 25.9985L34.4492 21.1829M34.4492 21.1829H34.4598C35.7607 20.5356 38.9974 18.6251 39.6633 17.2042L39.7872 16.8884C39.8801 16.5884 39.8956 16.2884 39.8646 15.9884L39.8956 15.9726C39.8646 15.7516 39.8337 15.5937 39.7562 15.3253L39.5859 14.8516C39.3691 14.3148 39.0748 13.8411 38.7031 13.4148C38.0992 12.7201 37.3093 12.1359 36.3027 11.5991C35.0638 10.9518 33.7164 10.4781 31.8115 10.0045C30.5571 9.70447 29.7053 9.5308 28.8381 9.42027L28.2651 9.34133C27.6766 9.26239 27.0571 9.19923 26.4222 9.15186L25.7562 9.1045L24.6102 9.04134C23.8514 9.00977 23.0615 9.00977 22.2717 9.00977H21.7452C20.9553 9.00977 20.181 9.00977 19.4067 9.05713L18.2606 9.12029L17.5947 9.16765C16.9443 9.21502 16.3403 9.27818 15.7518 9.35712L15.1788 9.43606C14.327 9.56237 13.4598 9.73605 12.2053 10.0202C10.3005 10.4939 8.95311 10.9676 7.71417 11.6149C6.70753 12.1517 5.91771 12.7359 5.31372 13.4306C4.94204 13.8569 4.64779 14.3306 4.43098 14.8674L4.26062 15.3411L4.2564 15.3557C4.1815 15.6153 4.13645 15.7714 4.12124 15.9884C4.09027 16.2884 4.12124 16.5884 4.19868 16.8884L4.32257 17.2042C4.9885 18.6251 8.22523 20.5356 9.5416 21.1829H9.54862M34.4492 21.1829C26.9939 24.8256 17.0221 24.7941 9.54862 21.1829M24.8754 16.6432C24.8754 18.2308 23.5884 19.5178 22.0008 19.5178C20.4132 19.5178 19.1262 18.2308 19.1262 16.6432C19.1262 15.0556 20.4132 13.7686 22.0008 13.7686C23.5884 13.7686 24.8754 15.0556 24.8754 16.6432Z" stroke="#0C2340" stroke-width="2" stroke-linecap="round" stroke-linejoin="round"/>
</svg>
