<svg width="44" height="44" viewBox="0 0 44 44" fill="none" xmlns="http://www.w3.org/2000/svg">
<path d="M5.4974 13.2007C5.4974 11.1471 5.4974 10.1204 5.89704 9.33602C6.24857 8.64609 6.8095 8.08516 7.49943 7.73363C8.28377 7.33398 9.31054 7.33398 11.3641 7.33398H32.6307C34.6843 7.33398 35.711 7.33398 36.4954 7.73363C37.1853 8.08516 37.7462 8.64609 38.0978 9.33602C38.4974 10.1204 38.4974 11.1471 38.4974 13.2007V29.334H28.7124C28.264 29.334 28.0398 29.334 27.8288 29.3846C27.6417 29.4296 27.4629 29.5036 27.2989 29.6041C27.1139 29.7175 26.9553 29.8761 26.6382 30.1931L26.5232 30.3082C26.2061 30.6252 26.0476 30.7838 25.8626 30.8972C25.6986 30.9977 25.5197 31.0718 25.3327 31.1167C25.1217 31.1673 24.8975 31.1673 24.449 31.1673H19.5458C19.0973 31.1673 18.8731 31.1673 18.6621 31.1167C18.4751 31.0718 18.2962 30.9977 18.1322 30.8972C17.9472 30.7838 17.7887 30.6252 17.4716 30.3082L17.3565 30.1931C17.0395 29.8761 16.8809 29.7175 16.6959 29.6041C16.5319 29.5036 16.3531 29.4296 16.166 29.3846C15.955 29.334 15.7308 29.334 15.2824 29.334H5.4974V13.2007Z" fill="#4F86D9"/>
<path d="M5.4974 29.334V13.2007C5.4974 11.1471 5.4974 10.1204 5.89704 9.33602C6.24857 8.64609 6.8095 8.08516 7.49943 7.73363C8.28377 7.33398 9.31054 7.33398 11.3641 7.33398H32.6307C34.6843 7.33398 35.711 7.33398 36.4954 7.73363C37.1853 8.08516 37.7462 8.64609 38.0978 9.33602C38.4974 10.1204 38.4974 11.1471 38.4974 13.2007V29.334H28.7124C28.264 29.334 28.0398 29.334 27.8288 29.3846C27.6417 29.4296 27.4629 29.5036 27.2989 29.6041C27.1139 29.7175 26.9553 29.8761 26.6382 30.1931L26.5232 30.3082C26.2061 30.6252 26.0476 30.7838 25.8626 30.8972C25.6986 30.9977 25.5197 31.0718 25.3327 31.1167C25.1217 31.1673 24.8975 31.1673 24.449 31.1673H19.5458C19.0973 31.1673 18.8731 31.1673 18.6621 31.1167C18.4751 31.0718 18.2962 30.9977 18.1322 30.8972C17.9472 30.7838 17.7887 30.6252 17.4716 30.3082L17.3565 30.1931C17.0395 29.8761 16.8809 29.7175 16.6959 29.6041C16.5319 29.5036 16.3531 29.4296 16.166 29.3846C15.955 29.334 15.7308 29.334 15.2824 29.334H5.4974ZM5.4974 29.334C4.48487 29.334 3.66406 30.1548 3.66406 31.1673V31.7784C3.66406 32.9151 3.66406 33.4834 3.789 33.9497C4.12805 35.215 5.11639 36.2033 6.38173 36.5424C6.848 36.6673 7.41632 36.6673 8.55295 36.6673H35.4418C36.5785 36.6673 37.1468 36.6673 37.6131 36.5424C38.8784 36.2033 39.8667 35.215 40.2058 33.9497C40.3307 33.4834 40.3307 32.9151 40.3307 31.7784C40.3307 31.2101 40.3307 30.926 40.2683 30.6928C40.0987 30.0601 39.6046 29.566 38.9719 29.3965C38.7388 29.334 38.4546 29.334 37.8863 29.334H36.6641M21.9974 13.9028V19.2506M21.9974 23.9861H22.0028" stroke="#0C2340" stroke-width="2" stroke-linecap="round" stroke-linejoin="round"/>
</svg>
