<svg width="44" height="44" viewBox="0 0 44 44" fill="none" xmlns="http://www.w3.org/2000/svg">
<path d="M21.3298 6.2421L3.65234 15.0808L7.31901 16.9141L21.3298 23.9195C21.5703 24.0398 21.6905 24.0999 21.8166 24.1236C21.9284 24.1445 22.043 24.1445 22.1547 24.1236C22.2808 24.0999 22.4011 24.0398 22.6416 23.9195L31.0077 19.7365L36.6523 16.9141L40.319 15.0808L22.6416 6.2421C22.4011 6.12185 22.2808 6.06172 22.1547 6.03806C22.043 6.0171 21.9284 6.0171 21.8166 6.03806C21.6905 6.06172 21.5703 6.12185 21.3298 6.2421Z" fill="#4F86D9"/>
<path d="M3.65234 15.0808L21.3298 6.2421C21.5703 6.12185 21.6905 6.06172 21.8166 6.03806C21.9284 6.0171 22.043 6.0171 22.1547 6.03806C22.2808 6.06172 22.4011 6.12185 22.6416 6.2421L40.319 15.0808M3.65234 15.0808L21.3298 23.9195M3.65234 15.0808L7.31901 16.9141M40.319 15.0808L36.6523 16.9141M40.319 15.0808L31.0077 19.7365M21.3298 23.9195C21.5703 24.0398 21.6905 24.0999 21.8166 24.1236C21.9284 24.1445 22.043 24.1445 22.1547 24.1236C22.2808 24.0999 22.4011 24.0398 22.6416 23.9195L31.0077 19.7365M21.3298 23.9195L7.31901 16.9141M31.1523 26.0808V20.5706C31.1523 20.2415 31.1523 20.077 31.1022 19.9318C31.0785 19.8629 31.0467 19.7974 31.0077 19.7365M21.9857 15.0808L30.3416 19.2588C30.6359 19.4059 30.783 19.4795 30.8906 19.5893C30.9347 19.6343 30.9739 19.6837 31.0077 19.7365M7.31901 16.9141V29.3929C7.31901 30.0748 7.31901 30.4157 7.42538 30.7142C7.51941 30.9781 7.67266 31.2169 7.87337 31.4123C8.1004 31.6334 8.41034 31.7754 9.03016 32.0595L20.7635 37.4373C21.2131 37.6434 21.4379 37.7464 21.6721 37.7871C21.8796 37.8231 22.0918 37.8231 22.2993 37.7871C22.5335 37.7464 22.7583 37.6434 23.2079 37.4373L34.9412 32.0595C35.561 31.7754 35.8709 31.6334 36.098 31.4123C36.2987 31.2169 36.4519 30.9781 36.546 30.7142C36.6523 30.4157 36.6523 30.0748 36.6523 29.3929V16.9141M36.6523 16.9141L31.0077 19.7365" stroke="#0C2340" stroke-width="2" stroke-linecap="round" stroke-linejoin="round"/>
</svg>
