<svg width="40" height="40" viewBox="0 0 40 40" fill="none" xmlns="http://www.w3.org/2000/svg">
<path fill-rule="evenodd" clip-rule="evenodd" d="M18.5409 31.3053C18.7547 31.4277 18.9831 31.5247 19.226 31.5961C19.4672 31.6671 19.7214 31.7028 19.9885 31.7033V10.3158C18.758 9.6162 17.4613 9.0794 16.0982 8.70546C14.7351 8.33151 13.3298 8.14453 11.8822 8.14453C10.5363 8.14453 9.2227 8.30135 7.94148 8.61498C6.66026 8.92862 5.4165 9.39907 4.21021 10.0263C3.94483 10.147 3.74579 10.3279 3.6131 10.5692C3.48041 10.8104 3.41406 11.0637 3.41406 11.3291V29.7853C3.41406 30.3402 3.65713 30.7624 4.14326 31.0519C4.6294 31.3414 5.13423 31.3535 5.65776 31.0881C6.59866 30.5332 7.59385 30.105 8.64332 29.8034C9.69279 29.5019 10.7681 29.3511 11.8692 29.3511C13.049 29.3511 14.2026 29.52 15.33 29.8577C16.4573 30.1955 17.5276 30.678 18.5409 31.3053Z" fill="#26D07C"/>
<path d="M19.9885 10.3158C18.758 9.6162 17.4613 9.0794 16.0982 8.70546C14.7351 8.33151 13.3298 8.14453 11.8822 8.14453C10.5363 8.14453 9.2227 8.30135 7.94148 8.61498C6.66026 8.92862 5.4165 9.39907 4.21021 10.0263C3.94483 10.147 3.74579 10.3279 3.6131 10.5692C3.48041 10.8104 3.41406 11.0637 3.41406 11.3291V29.7853C3.41406 30.3402 3.65713 30.7624 4.14326 31.0519C4.6294 31.3414 5.13423 31.3535 5.65776 31.0881C6.59866 30.5332 7.59385 30.105 8.64332 29.8034C9.69279 29.5019 10.7681 29.3511 11.8692 29.3511C13.049 29.3511 14.2026 29.52 15.33 29.8577C16.4573 30.1955 17.5276 30.678 18.5409 31.3053C18.7547 31.4277 18.9831 31.5247 19.226 31.5961C19.4672 31.6671 19.7214 31.7028 19.9885 31.7033M19.9885 10.3158C21.2189 9.6162 22.5156 9.0794 23.8787 8.70546C25.2418 8.33151 26.6472 8.14453 28.0947 8.14453C29.4406 8.14453 30.7542 8.30135 32.0354 8.61498C33.3167 8.92862 34.5604 9.39907 35.7667 10.0263C36.0321 10.147 36.2311 10.3279 36.3638 10.5692C36.4965 10.8104 36.5629 11.0637 36.5629 11.3291V29.7853C36.5629 30.3402 36.3198 30.7624 35.8337 31.0519C35.3475 31.3414 34.8427 31.3535 34.3192 31.0881C33.3783 30.5332 32.3831 30.105 31.3336 29.8034C30.2841 29.5019 29.2088 29.3511 28.1077 29.3511C26.9279 29.3511 25.7743 29.52 24.647 29.8577C23.5196 30.1955 22.4493 30.678 21.436 31.3053C21.2245 31.4277 20.9986 31.5247 20.7583 31.5961C20.518 31.6676 20.2633 31.7033 19.9941 31.7033L19.9885 31.7033M19.9885 10.3158V31.7033M31.6262 14.3318C28.8921 13.7851 27.4865 13.9307 24.8423 14.718M31.6262 18.8207C28.8921 18.274 27.4865 18.4197 24.8423 19.2069M31.6262 23.3096C28.8921 22.7629 27.4865 22.9086 24.8423 23.6958" stroke="#005844" stroke-width="1.53846" stroke-linecap="round"/>
</svg>
